<svg width="60" height="60" viewBox="0 0 60 60" fill="none" xmlns="http://www.w3.org/2000/svg">
<rect width="60" height="60" rx="30" fill="#4682FA" fill-opacity="0.3"/>
<path d="M34.8748 15.4165V24.1665M34.8748 15.4165H33.4165M34.8748 15.4165H43.6248M34.8748 24.1665V31.4582L39.2498 35.8332M34.8748 24.1665H43.6248M43.6248 15.4165V24.1665M43.6248 15.4165H45.0832M39.2498 35.8332L43.6248 31.4582V24.1665M39.2498 35.8332V44.5832M39.2498 35.8332V30.0192M17.3748 15.4165V24.1665M17.3748 15.4165H15.9165M17.3748 15.4165H26.1248M17.3748 24.1665V31.4582L21.7498 35.8332M17.3748 24.1665H26.1248M26.1248 15.4165V31.4582L21.7498 35.8332M26.1248 15.4165H27.5832M21.7498 35.8332V44.5832M21.7498 35.8332V30.0192" stroke="#4682FA" stroke-linecap="round"/>
</svg>
