<svg width="10" height="12" viewBox="0 0 10 12" fill="none" xmlns="http://www.w3.org/2000/svg">
<path d="M2.75 3.66998C2.75 2.62398 3.698 1.58998 4.363 0.993483C4.53813 0.836693 4.76494 0.75 5 0.75C5.23506 0.75 5.46187 0.836693 5.637 0.993483C6.302 1.59048 7.25 2.62348 7.25 3.67048C7.25 4.69548 6.398 5.75048 5 5.75048C3.602 5.75048 2.75 4.69548 2.75 3.66998Z" stroke="white" stroke-width="1.5"/>
<path d="M0.75 6.75049H1.9475C2.0945 6.75049 2.2395 6.78349 2.371 6.84749L3.392 7.34149C3.5235 7.40499 3.6685 7.43799 3.816 7.43799H4.337C4.841 7.43799 5.25 7.83349 5.25 8.32149C5.25 8.34149 5.2365 8.35849 5.217 8.36399L3.9465 8.71549C3.71853 8.77847 3.47543 8.75643 3.2625 8.65349L2.171 8.12549" stroke="white" stroke-width="1.5" stroke-linecap="round" stroke-linejoin="round"/>
<path d="M5.25 8.00063L7.5465 7.29513C7.74643 7.23378 7.96063 7.23715 8.15852 7.30477C8.35642 7.37238 8.5279 7.50077 8.6485 7.67163C8.833 7.92663 8.758 8.29263 8.489 8.44763L4.7315 10.6161C4.61401 10.6841 4.4839 10.7275 4.34912 10.7435C4.21433 10.7596 4.07768 10.7481 3.9475 10.7096L0.75 9.76063" stroke="white" stroke-width="1.5" stroke-linecap="round" stroke-linejoin="round"/>
</svg>
